<svg xmlns="http://www.w3.org/2000/svg" viewBox="0 0 512 512">
  <defs>
    <linearGradient id="bg" x1="0" y1="0" x2="1" y2="1">
      <stop offset="0%" stop-color="#38bdf8"/>
      <stop offset="100%" stop-color="#0369a1"/>
    </linearGradient>
    <radialGradient id="shine" cx="30%" cy="22%" r="65%">
      <stop offset="0%" stop-color="#ffffff" stop-opacity="0.22"/>
      <stop offset="100%" stop-color="#ffffff" stop-opacity="0"/>
    </radialGradient>
  </defs>

  <!-- Fundo arredondado estilo app icon -->
  <rect width="512" height="512" rx="112" fill="url(#bg)"/>
  <rect width="512" height="512" rx="112" fill="url(#shine)"/>

  <!-- Floco de neve com 6 braços simétricos -->
  <g transform="translate(256,256)" stroke="#ffffff" stroke-linecap="round" fill="none">
    <g transform="rotate(0)">
      <line x1="0" y1="0"   x2="0"   y2="-155" stroke-width="22"/>
      <line x1="0" y1="-68" x2="-46" y2="-95"  stroke-width="18"/>
      <line x1="0" y1="-68" x2="46"  y2="-95"  stroke-width="18"/>
      <line x1="0" y1="-116" x2="-33" y2="-135" stroke-width="16"/>
      <line x1="0" y1="-116" x2="33"  y2="-135" stroke-width="16"/>
    </g>
    <g transform="rotate(60)">
      <line x1="0" y1="0"   x2="0"   y2="-155" stroke-width="22"/>
      <line x1="0" y1="-68" x2="-46" y2="-95"  stroke-width="18"/>
      <line x1="0" y1="-68" x2="46"  y2="-95"  stroke-width="18"/>
      <line x1="0" y1="-116" x2="-33" y2="-135" stroke-width="16"/>
      <line x1="0" y1="-116" x2="33"  y2="-135" stroke-width="16"/>
    </g>
    <g transform="rotate(120)">
      <line x1="0" y1="0"   x2="0"   y2="-155" stroke-width="22"/>
      <line x1="0" y1="-68" x2="-46" y2="-95"  stroke-width="18"/>
      <line x1="0" y1="-68" x2="46"  y2="-95"  stroke-width="18"/>
      <line x1="0" y1="-116" x2="-33" y2="-135" stroke-width="16"/>
      <line x1="0" y1="-116" x2="33"  y2="-135" stroke-width="16"/>
    </g>
    <g transform="rotate(180)">
      <line x1="0" y1="0"   x2="0"   y2="-155" stroke-width="22"/>
      <line x1="0" y1="-68" x2="-46" y2="-95"  stroke-width="18"/>
      <line x1="0" y1="-68" x2="46"  y2="-95"  stroke-width="18"/>
      <line x1="0" y1="-116" x2="-33" y2="-135" stroke-width="16"/>
      <line x1="0" y1="-116" x2="33"  y2="-135" stroke-width="16"/>
    </g>
    <g transform="rotate(240)">
      <line x1="0" y1="0"   x2="0"   y2="-155" stroke-width="22"/>
      <line x1="0" y1="-68" x2="-46" y2="-95"  stroke-width="18"/>
      <line x1="0" y1="-68" x2="46"  y2="-95"  stroke-width="18"/>
      <line x1="0" y1="-116" x2="-33" y2="-135" stroke-width="16"/>
      <line x1="0" y1="-116" x2="33"  y2="-135" stroke-width="16"/>
    </g>
    <g transform="rotate(300)">
      <line x1="0" y1="0"   x2="0"   y2="-155" stroke-width="22"/>
      <line x1="0" y1="-68" x2="-46" y2="-95"  stroke-width="18"/>
      <line x1="0" y1="-68" x2="46"  y2="-95"  stroke-width="18"/>
      <line x1="0" y1="-116" x2="-33" y2="-135" stroke-width="16"/>
      <line x1="0" y1="-116" x2="33"  y2="-135" stroke-width="16"/>
    </g>
    <!-- Centro -->
    <circle r="26" fill="#ffffff" stroke="none"/>
  </g>
</svg>
