<svg xmlns="http://www.w3.org/2000/svg" viewBox="0 0 512 512">
  <defs>
    <linearGradient id="bg" x1="0" y1="0" x2="0" y2="1">
      <stop offset="0%" stop-color="#49c5f1"/>
      <stop offset="100%" stop-color="#1a8bbf"/>
    </linearGradient>
  </defs>
  <rect width="512" height="512" rx="108" fill="url(#bg)"/>
  <g transform="translate(256,256)" stroke="#ffffff" stroke-linecap="round" fill="none">
    <g transform="rotate(0)">
      <line x1="0" y1="0" x2="0" y2="-150" stroke-width="26"/>
      <line x1="0" y1="-108" x2="-44" y2="-150" stroke-width="22"/>
      <line x1="0" y1="-108" x2="44" y2="-150" stroke-width="22"/>
    </g>
    <g transform="rotate(60)">
      <line x1="0" y1="0" x2="0" y2="-150" stroke-width="26"/>
      <line x1="0" y1="-108" x2="-44" y2="-150" stroke-width="22"/>
      <line x1="0" y1="-108" x2="44" y2="-150" stroke-width="22"/>
    </g>
    <g transform="rotate(120)">
      <line x1="0" y1="0" x2="0" y2="-150" stroke-width="26"/>
      <line x1="0" y1="-108" x2="-44" y2="-150" stroke-width="22"/>
      <line x1="0" y1="-108" x2="44" y2="-150" stroke-width="22"/>
    </g>
    <g transform="rotate(180)">
      <line x1="0" y1="0" x2="0" y2="-150" stroke-width="26"/>
      <line x1="0" y1="-108" x2="-44" y2="-150" stroke-width="22"/>
      <line x1="0" y1="-108" x2="44" y2="-150" stroke-width="22"/>
    </g>
    <g transform="rotate(240)">
      <line x1="0" y1="0" x2="0" y2="-150" stroke-width="26"/>
      <line x1="0" y1="-108" x2="-44" y2="-150" stroke-width="22"/>
      <line x1="0" y1="-108" x2="44" y2="-150" stroke-width="22"/>
    </g>
    <g transform="rotate(300)">
      <line x1="0" y1="0" x2="0" y2="-150" stroke-width="26"/>
      <line x1="0" y1="-108" x2="-44" y2="-150" stroke-width="22"/>
      <line x1="0" y1="-108" x2="44" y2="-150" stroke-width="22"/>
    </g>
  </g>
</svg>
